<svg xmlns="http://www.w3.org/2000/svg" xmlns:xlink="http://www.w3.org/1999/xlink" version="1.1" id="Layer_1" x="0px" y="0px" width="95.453px" height="100px" viewBox="0 0 95.453 100" enable-background="new 0 0 95.453 100" xml:space="preserve">
<g>
	<polygon fill="none" points="27.688,83.502 27.687,83.5 15.736,70.689 15.736,70.689 15.736,83.502  "/>
	<polygon fill="none" points="38.118,83.502 68.736,83.502 68.736,54.96 38.117,83.5 32.538,88.699 32.54,88.702  "/>
	<polygon fill="none" points="15.736,41.15 15.736,41.15 16.037,40.87 33.376,59.46 64.436,30.501 15.736,30.501  "/>
	<g>
		<g>
			<polygon points="15.736,41.15 15.736,30.501 64.436,30.501 64.438,30.5 74.085,21.501 6.736,21.501 6.736,49.541 6.736,49.54         "/>
		</g>
	</g>
	<g>
		<g>
			<polygon points="68.736,83.502 38.118,83.502 32.54,88.702 32.538,88.699 32.537,88.7 27.688,83.502 15.736,83.502      15.736,70.689 6.736,61.04 6.736,61.039 6.736,92.502 77.736,92.502 77.736,46.565 72.736,51.227 68.736,54.96    "/>
		</g>
	</g>
	<g>
		<g>
			<polygon points="80.092,20.062 33.242,63.742 15.902,45.152 5.252,55.082 32.702,84.502 90.202,30.902    "/>
		</g>
	</g>
</g>
</svg>