<svg xmlns="http://www.w3.org/2000/svg" xmlns:xlink="http://www.w3.org/1999/xlink" version="1.1" x="0px" y="0px" width="100px" height="100px" viewBox="0 0 100 100" enable-background="new 0 0 100 100" xml:space="preserve">
<g id="&#1057;&#1083;&#1086;&#1081;_1">
</g>
<g id="&#1057;&#1083;&#1086;&#1081;_2">
	<g>
		<path d="M62.115,47.413v-2.8c3.722,0,6.75-3.028,6.75-6.75c0-2.96-1.922-5.538-4.782-6.418l-1.101-0.339l0.12-1.146    c0.037-0.35,0.057-0.703,0.057-1.062c0-5.519-4.491-10.011-10.01-10.011s-10.01,4.491-10.01,10.011    c0,0.379,0.026,0.752,0.066,1.12l0.119,1.066l-0.999,0.391c-1.981,0.777-3.261,2.644-3.261,4.758c0,3.038,2.78,4.648,5.382,5.145    l-0.524,2.751c-4.653-0.886-7.658-3.985-7.658-7.896c0-2.919,1.572-5.533,4.082-6.917c-0.005-0.138-0.008-0.278-0.008-0.418    c0-7.064,5.746-12.811,12.81-12.811s12.81,5.746,12.81,12.811c0,0.088-0.001,0.174-0.003,0.26    c3.456,1.511,5.708,4.882,5.708,8.705C71.665,43.129,67.381,47.413,62.115,47.413z"/>
	</g>
	<g>
		<path d="M74.465,82.5h-42c-1.251,0-2.262-0.515-2.775-1.414c-0.513-0.898-0.442-2.032,0.194-3.109l15.351-25.979    c0.655-1.109,1.23-3.212,1.23-4.498V29.3c0-2.316,1.884-4.2,4.2-4.2h4.2c2.316,0,4.2,1.884,4.2,4.2v18.2    c0,1.274,0.6,3.336,1.284,4.411l16.594,26.075c0.677,1.064,0.781,2.192,0.285,3.094S75.725,82.5,74.465,82.5z M32.171,79.67    c0.066,0.016,0.163,0.03,0.294,0.03h42c0.09,0,0.164-0.007,0.222-0.015c-0.024-0.055-0.058-0.12-0.107-0.196L57.987,53.414    c-0.965-1.518-1.722-4.115-1.722-5.914V29.3c0-0.772-0.628-1.4-1.4-1.4h-4.2c-0.772,0-1.4,0.628-1.4,1.4v18.2    c0,1.784-0.711,4.386-1.619,5.923L32.294,79.402C32.228,79.515,32.19,79.606,32.171,79.67z"/>
	</g>
	<path d="M36.729,46.736c-1.189-1.191-2.772-1.846-4.454-1.846c-1.206,0-2.357,0.341-3.352,0.97l-1.781-1.781   c0.74-1.56,0.482-3.479-0.808-4.768c-1.586-1.586-4.353-1.586-5.939,0c-1.638,1.638-1.638,4.302,0,5.94   c0.793,0.793,1.848,1.23,2.969,1.23c0.636,0,1.243-0.155,1.8-0.421l1.78,1.78c-1.283,2.041-1.283,4.659,0,6.7l-1.795,1.795   c-1.556-0.701-3.513-0.446-4.755,0.795c-1.637,1.638-1.637,4.301,0,5.939c0.793,0.793,1.848,1.23,2.969,1.23   c1.122,0,2.177-0.438,2.97-1.23c1.289-1.289,1.547-3.207,0.807-4.767l1.782-1.782c0.995,0.628,2.146,0.969,3.351,0.969   c1.682,0,3.264-0.655,4.454-1.844C39.185,53.189,39.185,49.193,36.729,46.736z M24.064,44.96c-0.934,0.228-1.977,0.002-2.679-0.699   c-1.092-1.092-1.092-2.868,0-3.961c0.528-0.528,1.232-0.819,1.98-0.819c0.748,0,1.451,0.291,1.98,0.819   c0.73,0.73,0.96,1.763,0.714,2.695c-0.122,0.463-0.352,0.903-0.714,1.265C24.988,44.618,24.539,44.844,24.064,44.96z M25.344,62.08   c-1.058,1.058-2.901,1.058-3.959,0c-1.092-1.091-1.092-2.868,0-3.959c0.529-0.529,1.232-0.82,1.98-0.82   c0.246,0,0.484,0.043,0.716,0.104c0.472,0.125,0.909,0.361,1.263,0.716c0.362,0.362,0.593,0.802,0.714,1.265   C26.304,60.318,26.074,61.351,25.344,62.08z M35.536,54.45c-1.42,1.419-3.69,1.661-5.427,0.768   c-0.395-0.203-0.772-0.445-1.094-0.768c-0.326-0.326-0.572-0.698-0.78-1.084c-0.73-1.36-0.73-2.994,0-4.354   c0.208-0.387,0.454-0.758,0.779-1.084c0.322-0.322,0.692-0.57,1.082-0.781c0.665-0.359,1.402-0.57,2.179-0.57   c1.231,0,2.389,0.48,3.26,1.351C37.333,49.727,37.333,52.651,35.536,54.45z"/>
	<g>
		<rect x="44.365" y="57.465" transform="matrix(0.8806 0.4738 -0.4738 0.8806 37.5846 -13.59)" width="2.799" height="20.671"/>
	</g>
</g>
</svg>