<svg xmlns="http://www.w3.org/2000/svg" xmlns:xlink="http://www.w3.org/1999/xlink" version="1.1" id="Your_Icon" x="0px" y="0px" width="100px" height="100px" viewBox="0 0 100 100" enable-background="new 0 0 100 100" xml:space="preserve">
<g>
	<path d="M72.534,29.985l17.767-17.794l-2.326-2.324L70.048,27.821c-3.427-2.543-7.653-4.053-12.225-4.053   c-5.121,0-9.808,1.858-13.426,4.935c-3.617-3.077-8.304-4.935-13.426-4.935c-11.45,0-20.732,9.465-20.732,20.915   c0,3.737-0.096,16.202,13.249,29.773L5.093,92.88L0.315,100l7.103-4.795L25.854,76.74c4.655,4.273,10.698,8.613,18.544,12.787   C78.738,71.26,78.556,49.798,78.556,44.684C78.556,38.985,76.256,33.778,72.534,29.985z"/>
	<polygon points="87.448,0 74.661,12.786 74.661,21.741 87.448,8.955  "/>
	<polygon points="91.045,12.552 78.258,25.337 87.213,25.337 100,12.552  "/>
</g>
</svg>