<svg xmlns="http://www.w3.org/2000/svg" xmlns:xlink="http://www.w3.org/1999/xlink" version="1.1" id="Your_Icon" x="0px" y="0px" width="100px" height="100px" viewBox="0 0 100 100" enable-background="new 0 0 100 100" xml:space="preserve">
<g>
	<path fill="#000000" d="M50.304,99.651C24.221,99.651,3,78.431,3,52.348c0-13.036,5.459-25.621,14.979-34.534   c2.42-2.256,6.201-2.13,8.463,0.278c2.256,2.414,2.133,6.201-0.281,8.46c-7.218,6.756-11.192,15.917-11.192,25.797   c0,19.485,15.85,35.335,35.335,35.335s35.335-15.85,35.335-35.335c0-9.658-3.828-18.681-10.777-25.402   c-2.373-2.297-2.437-6.087-0.14-8.463c2.297-2.367,6.084-2.443,8.463-0.14c9.298,8.997,14.424,21.075,14.424,34.005   C97.608,78.431,76.387,99.651,50.304,99.651z"/>
</g>
<path fill="#000000" d="M50.304,51.19c-3.308,0-5.985-2.68-5.985-5.985V5.985C44.319,2.68,46.996,0,50.304,0s5.985,2.68,5.985,5.985  v39.221C56.288,48.511,53.612,51.19,50.304,51.19z"/>
</svg>