<svg xmlns="http://www.w3.org/2000/svg" xmlns:xlink="http://www.w3.org/1999/xlink" version="1.1" id="Layer_1" x="0px" y="0px" width="50px" height="50px" viewBox="0 0 50 50" enable-background="new 0 0 50 50" xml:space="preserve">
<path fill="#000000" d="M40.15,3.401L17.504,3.942L1.321,19.354l23.572,2.042L40.15,3.401z M20.854,12.579  c-1.492,0.713-2.762,0.883-2.836,0.381c-0.076-0.504,1.072-1.488,2.564-2.201c1.491-0.713,2.762-0.883,2.838-0.38  C23.495,10.881,22.345,11.866,20.854,12.579z"/>
<path fill="#000000" d="M0.767,21.837L12.469,41.95l22.593,4.648L24.571,23.897L0.767,21.837z M15.784,40.437  c-1.201-0.041-2.508-0.869-2.916-1.849c-0.411-0.979,0.23-1.739,1.432-1.698s2.506,0.869,2.916,1.848  C17.625,39.718,16.983,40.478,15.784,40.437z M18.575,34.706c-1.201-0.041-2.508-0.869-2.916-1.848  c-0.411-0.98,0.23-1.74,1.432-1.699s2.506,0.868,2.916,1.848C20.417,33.985,19.774,34.746,18.575,34.706z M21.366,28.975  c-1.201-0.042-2.507-0.868-2.916-1.849c-0.41-0.979,0.23-1.738,1.432-1.698c1.201,0.042,2.506,0.868,2.916,1.849  C23.208,28.255,22.567,29.017,21.366,28.975z"/>
<path fill="#000000" d="M42.41,4.724L26.998,22.896l10.498,22.713l11.736-18.916L42.41,4.724z M33.514,26.345  c-0.785,0.27-1.348-0.621-1.258-1.99c0.092-1.367,0.801-2.695,1.586-2.964c0.785-0.27,1.348,0.622,1.258,1.991  C35.008,24.749,34.299,26.077,33.514,26.345z M38.729,39.169c-0.766,0.314-1.379-0.541-1.369-1.914  c0.01-1.371,0.641-2.738,1.41-3.051c0.768-0.314,1.381,0.543,1.371,1.914C40.129,37.489,39.498,38.856,38.729,39.169z   M39.838,27.554c-0.768,0.314-1.381-0.543-1.369-1.914c0.01-1.371,0.641-2.738,1.41-3.051c0.768-0.314,1.381,0.543,1.369,1.913  C41.238,25.874,40.607,27.239,39.838,27.554z M40.926,16.163c-0.768,0.314-1.381-0.543-1.371-1.914  c0.012-1.371,0.643-2.738,1.41-3.051c0.768-0.315,1.383,0.542,1.371,1.914C42.326,14.481,41.693,15.849,40.926,16.163z   M45.52,28.682c-0.785,0.271-1.346-0.622-1.256-1.99s0.801-2.694,1.586-2.964s1.348,0.623,1.256,1.99  C47.016,27.087,46.305,28.413,45.52,28.682z"/>
</svg>