<svg xmlns="http://www.w3.org/2000/svg" xmlns:xlink="http://www.w3.org/1999/xlink" version="1.1" id="Layer_1" x="0px" y="0px" width="94.445px" height="100px" viewBox="0 0 94.445 100" enable-background="new 0 0 94.445 100" xml:space="preserve">
<circle cx="44.445" cy="6.944" r="6.944"/>
<circle cx="44.445" cy="34.722" r="11.111"/>
<path d="M19.445,61.111v6.944h50v-6.944C69.445,54.974,64.47,50,58.334,50H30.556C24.42,50,19.445,54.974,19.445,61.111z"/>
<path d="M94.445,100c0,0-5.556-9.723-5.556-22.221V5.556H56.863c0.051,0.456,0.082,0.919,0.082,1.389  c0,2.569-0.78,4.956-2.113,6.944h25.724v58.334H8.334V13.889h25.724c-1.333-1.988-2.112-4.375-2.112-6.944  c0-0.469,0.031-0.933,0.081-1.389H0v72.222C0,87.991,2.694,91.42,6.193,91.569v0.012L94.445,100z M21.962,80.816l51.807,13.712  l-60.412-5.753C17.95,85.588,21.962,80.816,21.962,80.816z"/>
</svg>